<?xml version="1.0" encoding="utf-8"?>
<svg xmlns="http://www.w3.org/2000/svg" style="margin: auto; background: none; display: block; shape-rendering: auto;" width="280" height="100" preserveAspectRatio="xMidYMid">
<style type="text/css">
  text {
    text-anchor: middle; font-size: 40px; opacity: 0;
  }
</style>
<g style="transform-origin:140px 50px;transform:scale(1)">
<g transform="translate(140,50)">
  <g transform="translate(0,0)"><g class="path" style="opacity: 1; transform-origin: -107.26px -3.07988px; animation: 3.22581s linear -2.02258s infinite normal forwards running blink-d2d38f3f-9b23-4526-bd78-9803ded92d53;"><path d="M15.60-26L15.60-26L15.44-27.48L15.44-27.48Q15.44-28.20 17.28-28.50L17.28-28.50L17.28-28.50Q19.12-28.80 20.88-28.80L20.88-28.80L20.88-28.80Q22.64-28.80 22.64-28.20L22.64-28.20L22.64-28.20Q22.64-27.92 22.24-27.52L22.24-27.52L22.24-27.52Q20.68-25.88 18.46-22.16L18.46-22.16L18.46-22.16Q16.24-18.44 14.80-15.52L14.80-15.52L13.36-12.64L13.36-12.64Q12.64-11.12 12.64-9.30L12.64-9.30L12.64-9.30Q12.64-7.48 12.76-5.70L12.76-5.70L12.76-5.70Q12.88-3.92 13-2.68L13-2.68L13-2.68Q13.12-1.44 13.12-1.24L13.12-1.24L13.12-1.24Q13.12-0.24 11.28 0.38L11.28 0.38L11.28 0.38Q9.44 1 8.26 1L8.26 1L8.26 1Q7.08 1 7.08 0.56L7.08 0.56L7.20 0.04L7.20 0.04Q7.88-3.60 7.88-8.60L7.88-8.60L7.88-8.60Q7.88-9.84 7.48-11.68L7.48-11.68L7.36-12.20L7.36-12.20Q4.80-19.12 2.56-22.40L2.56-22.40L2.56-22.40Q0.64-25.32-0.24-25.84L-0.24-25.84L-0.60-26.08L-0.60-26.08Q-1-26.32-1-26.64L-1-26.64L-1-26.64Q-1-27.32 1.08-28.04L1.08-28.04L1.08-28.04Q3.16-28.76 4.22-28.76L4.22-28.76L4.22-28.76Q5.28-28.76 5.64-28.12L5.64-28.12L5.64-28.12Q9.24-20.60 11.24-15.96L11.24-15.96L11.24-15.96Q11.36-15.72 11.58-15.72L11.58-15.72L11.58-15.72Q11.80-15.72 12.10-16.20L12.10-16.20L12.10-16.20Q12.40-16.68 13-17.72L13-17.72L13-17.72Q13.60-18.76 14.60-21.42L14.60-21.42L14.60-21.42Q15.60-24.08 15.60-26" fill="#220b09" stroke="none" stroke-width="none" transform="translate(-118.07996821403503,10.820121667385102)" style="fill: rgb(34, 11, 9);"></path></g><g class="path" style="opacity: 1; transform-origin: -92.42px 2.18012px; animation: 3.22581s linear -1.91613s infinite normal forwards running blink-d2d38f3f-9b23-4526-bd78-9803ded92d53;"><path d="M22.28-15.08L22.28-15.08L22.28-15.08Q21.24-15.04 20.78-15.02L20.78-15.02L20.78-15.02Q20.32-15 20.32-15.24L20.32-15.24L20.32-15.24Q20.32-15.48 20.56-15.72L20.56-15.72L20.56-15.72Q23.12-18.08 29.20-18.08L29.20-18.08L29.20-18.08Q31.28-18.08 32.48-17.72L32.48-17.72L32.88-17.60L32.88-17.60Q33.36-17.40 33.36-17.16L33.36-17.16L33.36-17.16Q33.36-16.96 33.08-16.84L33.08-16.84L33.08-16.84Q32-16.52 31-15.82L31-15.82L31-15.82Q30-15.12 30-14.84L30-14.84L30.24-14.56L30.24-14.56Q31.52-13.84 32.22-12.28L32.22-12.28L32.22-12.28Q32.92-10.72 33-9.52L33-9.52L33.08-8.28L33.08-8.28Q33.08-4.32 30.88-1.76L30.88-1.76L30.88-1.76Q28.68 0.80 24.88 0.80L24.88 0.80L24.88 0.80Q22.96 0.80 21.56 0.12L21.56 0.12L21.56 0.12Q20.16-0.56 19.50-1.42L19.50-1.42L19.50-1.42Q18.84-2.28 18.44-3.36L18.44-3.36L18.44-3.36Q17.96-4.84 17.96-6.42L17.96-6.42L17.96-6.42Q17.96-8 18.50-9.60L18.50-9.60L18.50-9.60Q19.04-11.20 19.74-11.96L19.74-11.96L19.74-11.96Q20.44-12.72 21.32-13.20L21.32-13.20L21.32-13.20Q22.44-13.80 23.12-13.80L23.12-13.80L23.12-13.80Q23.80-13.80 23.80-13.52L23.80-13.52L23.56-13.12L23.56-13.12Q22.68-12.08 22.30-10.40L22.30-10.40L22.30-10.40Q21.92-8.72 21.92-7.42L21.92-7.42L21.92-7.42Q21.92-6.12 22.24-4.84L22.24-4.84L22.24-4.84Q22.56-3.56 22.96-2.94L22.96-2.94L22.96-2.94Q23.36-2.32 23.88-2L23.88-2L23.88-2Q24.64-1.52 25.48-1.52L25.48-1.52L25.48-1.52Q26.32-1.52 27.12-2.18L27.12-2.18L27.12-2.18Q27.92-2.84 28.28-3.92L28.28-3.92L28.28-3.92Q29-5.92 29-8.04L29-8.04L29-8.04Q29-11.40 27.30-13.24L27.30-13.24L27.30-13.24Q25.60-15.08 22.28-15.08" fill="#220b09" stroke="none" stroke-width="none" transform="translate(-118.07996821403503,10.820121667385102)" style="fill: rgb(211, 76, 49);"></path></g><g class="path" style="opacity: 1; transform-origin: -75.84px 2.04012px; animation: 3.22581s linear -1.80968s infinite normal forwards running blink-d2d38f3f-9b23-4526-bd78-9803ded92d53;"><path d="M49.32-17.80L49.32-17.80L49.32-17.80Q48.60-13.48 48.60-6.80L48.60-6.80L48.60-6.80Q48.60-1.88 49-0.32L49-0.32L49.16 0.20L49.16 0.20Q49.16 0.72 48.28 0.72L48.28 0.72L48.28 0.72Q45.20 0.72 44.76-1L44.76-1L44.76-1Q44.72-1.20 44.58-1.20L44.58-1.20L44.58-1.20Q44.44-1.20 44.32-1.04L44.32-1.04L44.32-1.04Q43.08 0.60 40.48 0.60L40.48 0.60L40.48 0.60Q39.04 0.60 37.48-0.12L37.48-0.12L37.48-0.12Q36.52-0.56 35.92-1.66L35.92-1.66L35.92-1.66Q35.32-2.76 35.32-4.36L35.32-4.36L35.92-13.12L35.92-13.12Q35.92-15.88 35.36-17.04L35.36-17.04L35.36-17.04Q35.16-17.48 35.16-17.60L35.16-17.60L35.16-17.60Q35.16-17.84 35.36-17.92L35.36-17.92L35.36-17.92Q36-18.12 37-18.12L37-18.12L37-18.12Q40.88-18.12 40.88-14.92L40.88-14.92L40.88-14.92Q40.88-13.92 40.06-10.36L40.06-10.36L40.06-10.36Q39.24-6.80 39.24-5.30L39.24-5.30L39.24-5.30Q39.24-3.80 39.90-3L39.90-3L39.90-3Q40.56-2.20 41.74-2.20L41.74-2.20L41.74-2.20Q42.92-2.20 43.60-3.04L43.60-3.04L43.60-3.04Q44.28-3.88 44.40-4.72L44.40-4.72L44.52-5.56L44.52-5.56Q44.68-6.96 44.68-10.48L44.68-10.48L44.68-10.48Q44.68-14 44.46-14.94L44.46-14.94L44.46-14.94Q44.24-15.88 44.24-16.12L44.24-16.12L44.24-16.12Q44.24-17.12 45.84-17.70L45.84-17.70L45.84-17.70Q47.44-18.28 48.72-18.28L48.72-18.28L48.72-18.28Q49.32-18.28 49.32-17.80" fill="#220b09" stroke="none" stroke-width="none" transform="translate(-118.07996821403503,10.820121667385102)" style="fill: rgb(232, 132, 50);"></path></g><g class="path" style="opacity: 1; transform-origin: -60.64px 2.04012px; animation: 3.22581s linear -1.70323s infinite normal forwards running blink-d2d38f3f-9b23-4526-bd78-9803ded92d53;"><path d="M63.64-13.76L63.44-10.72L63.60-9.32L63.60-9.32Q63.60-8.56 62.16-8.56L62.16-8.56L62.16-8.56Q59.24-8.56 59.24-10.76L59.24-10.76L59.24-10.76Q59.24-11.28 59.52-12.20L59.52-12.20L59.52-12.20Q59.80-13.12 59.80-13.80L59.80-13.80L59.80-13.80Q59.80-14.48 59.40-14.98L59.40-14.98L59.40-14.98Q59.00-15.48 58.24-15.48L58.24-15.48L58.24-15.48Q57.48-15.48 56.94-14.94L56.94-14.94L56.94-14.94Q56.40-14.40 56.28-13.84L56.28-13.84L56.12-13.28L56.12-13.28Q55.88-12.04 55.88-9.14L55.88-9.14L55.88-9.14Q55.88-6.24 55.96-4.58L55.96-4.58L55.96-4.58Q56.04-2.92 56.12-2.30L56.12-2.30L56.12-2.30Q56.20-1.68 56.20-1.56L56.20-1.56L56.20-1.56Q56.20-0.56 54.96 0.06L54.96 0.06L54.96 0.06Q53.72 0.68 52.48 0.68L52.48 0.68L52.48 0.68Q51.24 0.68 51.24 0.16L51.24 0.16L51.44-1.08L51.44-1.08Q52.00-4.56 52.00-10.16L52.00-10.16L52.00-10.16Q52.00-15.76 51.60-17.76L51.60-17.76L51.60-17.76Q51.60-18.24 52.44-18.24L52.44-18.24L52.44-18.24Q54.60-18.24 55.32-16.76L55.32-16.76L55.32-16.76Q55.36-16.60 55.46-16.60L55.46-16.60L55.46-16.60Q55.56-16.60 56.00-16.96L56.00-16.96L56.00-16.96Q57.32-18.04 59.12-18.04L59.12-18.04L59.12-18.04Q60.24-18.04 61.36-17.60L61.36-17.60L61.36-17.60Q63.64-16.68 63.64-13.76L63.64-13.76" fill="#220b09" stroke="none" stroke-width="none" transform="translate(-118.07996821403503,10.820121667385102)" style="fill: rgb(255, 49, 45);"></path></g><g class="path" style="opacity: 1; transform-origin: -38.46px -2.71988px; animation: 3.22581s linear -1.59677s infinite normal forwards running blink-d2d38f3f-9b23-4526-bd78-9803ded92d53;"><path d="M80.72-13.80L80.72-13.80L79.80-13.56L79.80-13.56Q79.08-13.56 79.08-14.90L79.08-14.90L79.08-14.90Q79.08-16.24 80.06-17.06L80.06-17.06L80.06-17.06Q81.04-17.88 82.56-17.88L82.56-17.88L82.56-17.88Q83.40-17.88 84.36-17.38L84.36-17.38L84.36-17.38Q85.32-16.88 85.96-16.14L85.96-16.14L85.96-16.14Q86.60-15.40 87.10-13.82L87.10-13.82L87.10-13.82Q87.60-12.24 87.60-10.12L87.60-10.12L87.60-10.12Q87.60-5.24 84.98-2.20L84.98-2.20L84.98-2.20Q82.36 0.84 77.40 0.84L77.40 0.84L77.40 0.84Q75.96 0.84 74.56 0.56L74.56 0.56L74.16 0.48L74.16 0.48Q73.64 0.32 73.56-0.08L73.56-0.08L73.56-0.08Q73.44-0.92 73.44-4.04L73.44-4.04L73.68-17L73.68-17Q73.68-20 73.52-21.60L73.52-21.60L73.44-22.16L73.44-22.16Q73.36-23.28 72.98-24.08L72.98-24.08L72.98-24.08Q72.60-24.88 72.24-25.12L72.24-25.12L71.92-25.32L71.92-25.32Q71.64-25.48 71.64-25.68L71.64-25.68L71.64-25.68Q71.64-26.28 73.64-27.10L73.64-27.10L73.64-27.10Q75.64-27.92 76.56-27.92L76.56-27.92L76.56-27.92Q77.48-27.92 77.52-27.44L77.52-27.44L77.52-27.44Q77.80-25 77.80-20.48L77.80-20.48L77.60-10.88L77.60-10.88Q77.60-4.60 77.96-2.20L77.96-2.20L77.96-2.20Q78.00-1.64 79.22-1.64L79.22-1.64L79.22-1.64Q80.44-1.64 81.32-2.32L81.32-2.32L81.32-2.32Q82.20-3 82.64-4.12L82.64-4.12L82.64-4.12Q83.44-6.16 83.44-8.64L83.44-8.64L83.44-8.64Q83.44-9.80 83.12-11.16L83.12-11.16L83.12-11.16Q82.56-13.80 80.72-13.80" fill="#220b09" stroke="none" stroke-width="none" transform="translate(-118.07996821403503,10.820121667385102)" style="fill: rgb(253, 50, 98);"></path></g><g class="path" style="opacity: 1; transform-origin: -22.42px 2.12012px; animation: 3.22581s linear -1.49032s infinite normal forwards running blink-d2d38f3f-9b23-4526-bd78-9803ded92d53;"><path d="M93.20-10.16L93.20-10.16L93.24-9.16L93.24-9.16Q93.24-8.92 93.56-8.92L93.56-8.92L93.56-8.92Q94.84-9.04 95.80-9.58L95.80-9.58L95.80-9.58Q96.76-10.12 97.24-10.80L97.24-10.80L97.24-10.80Q98.20-12.28 98.28-13.36L98.28-13.36L98.32-13.84L98.32-13.84Q98.32-16 96.60-16L96.60-16L96.60-16Q95.32-16 94.52-14.88L94.52-14.88L94.52-14.88Q93.20-13.12 93.20-10.16zM101.92-4.84L101.92-4.84L101.92-4.84Q101.92-3.32 101.30-2.18L101.30-2.18L101.30-2.18Q100.68-1.04 99.90-0.50L99.90-0.50L99.90-0.50Q99.12 0.04 98.08 0.36L98.08 0.36L98.08 0.36Q96.76 0.76 95.56 0.76L95.56 0.76L95.56 0.76Q92.20 0.76 90.60-1.76L90.60-1.76L90.60-1.76Q89.00-4.28 89.00-8.18L89.00-8.18L89.00-8.18Q89.00-12.08 90.98-15.12L90.98-15.12L90.98-15.12Q92.96-18.16 96.92-18.16L96.92-18.16L96.92-18.16Q100.52-18.16 101.80-15.64L101.80-15.64L101.80-15.64Q102.32-14.68 102.32-13.82L102.32-13.82L102.32-13.82Q102.32-12.96 102.24-12.46L102.24-12.46L102.24-12.46Q102.16-11.96 101.68-10.96L101.68-10.96L101.68-10.96Q101.20-9.96 100.40-9.16L100.40-9.16L100.40-9.16Q99.60-8.36 97.88-7.64L97.88-7.64L97.88-7.64Q96.16-6.92 93.84-6.68L93.84-6.68L93.84-6.68Q93.52-6.68 93.52-6.40L93.52-6.40L93.52-6.40Q93.52-6.04 93.78-5.34L93.78-5.34L93.78-5.34Q94.04-4.64 94.36-4.16L94.36-4.16L94.36-4.16Q95.24-3.04 96.96-3.04L96.96-3.04L96.96-3.04Q98.68-3.04 99.88-4.16L99.88-4.16L99.88-4.16Q100.52-4.76 100.92-5.64L100.92-5.64L100.92-5.64Q101.08-5.96 101.34-5.96L101.34-5.96L101.34-5.96Q101.60-5.96 101.76-5.52L101.76-5.52L101.76-5.52Q101.92-5.08 101.92-4.84" fill="#220b09" stroke="none" stroke-width="none" transform="translate(-118.07996821403503,10.820121667385102)" style="fill: rgb(240, 195, 169);"></path></g><g class="path" style="opacity: 1; transform-origin: -8.27997px 2.18012px; animation: 3.22581s linear -1.38387s infinite normal forwards running blink-d2d38f3f-9b23-4526-bd78-9803ded92d53;"><path d="M116.28-5.48L116.28-5.48L116.28-5.48Q116.28-3.76 115.62-2.48L115.62-2.48L115.62-2.48Q114.96-1.20 114.12-0.60L114.12-0.60L114.12-0.60Q113.28 0 112.12 0.36L112.12 0.36L112.12 0.36Q110.60 0.84 109.36 0.84L109.36 0.84L109.36 0.84Q106.76 0.84 105.04-0.18L105.04-0.18L105.04-0.18Q103.32-1.20 103.32-3.44L103.32-3.44L103.32-3.44Q103.32-4.76 104.04-5.60L104.04-5.60L104.04-5.60Q105.16-6.84 106.72-6.84L106.72-6.84L106.72-6.84Q107.20-6.84 107.20-6.40L107.20-6.40L107.20-6.40Q107.20-6.36 107.02-5.78L107.02-5.78L107.02-5.78Q106.84-5.20 106.84-4.32L106.84-4.32L106.84-4.32Q106.84-3.44 107.54-2.76L107.54-2.76L107.54-2.76Q108.24-2.08 109.24-2.08L109.24-2.08L109.24-2.08Q110.24-2.08 110.84-2.42L110.84-2.42L110.84-2.42Q111.44-2.76 111.68-3.28L111.68-3.28L111.68-3.28Q112.04-4 112.04-4.64L112.04-4.64L112.04-4.64Q112.04-5.80 110.88-6.64L110.88-6.64L110.88-6.64Q109.72-7.48 108.32-7.96L108.32-7.96L108.32-7.96Q106.92-8.44 105.76-9.56L105.76-9.56L105.76-9.56Q104.60-10.68 104.60-12.36L104.60-12.36L104.60-12.36Q104.60-15.24 106.42-16.68L106.42-16.68L106.42-16.68Q108.24-18.12 111.36-18.12L111.36-18.12L111.36-18.12Q112.72-18.12 114.22-17.74L114.22-17.74L114.22-17.74Q115.72-17.36 115.72-16.46L115.72-16.46L115.72-16.46Q115.72-15.56 115.42-14.80L115.42-14.80L115.42-14.80Q115.12-14.04 114.68-14.04L114.68-14.04L114.68-14.04Q114.44-14.04 114.36-14.22L114.36-14.22L114.36-14.22Q114.28-14.40 114.08-14.64L114.08-14.64L114.08-14.64Q113.88-14.88 113.12-15.26L113.12-15.26L113.12-15.26Q112.36-15.64 111.82-15.64L111.82-15.64L111.82-15.64Q111.28-15.64 111.10-15.62L111.10-15.62L111.10-15.62Q110.92-15.60 110.48-15.50L110.48-15.50L110.48-15.50Q110.04-15.40 109.68-15.20L109.68-15.20L109.68-15.20Q108.76-14.68 108.76-13.68L108.76-13.68L108.76-13.68Q108.76-13.04 109.04-12.74L109.04-12.74L109.04-12.74Q109.32-12.44 109.48-12.28L109.48-12.28L109.48-12.28Q109.64-12.12 110.04-11.90L110.04-11.90L110.04-11.90Q110.44-11.68 110.60-11.60L110.60-11.60L110.60-11.60Q110.76-11.52 111.32-11.26L111.32-11.26L111.32-11.26Q111.88-11 112.04-10.92L112.04-10.92L112.04-10.92Q116.28-8.92 116.28-5.48" fill="#220b09" stroke="none" stroke-width="none" transform="translate(-118.07996821403503,10.820121667385102)" style="fill: rgb(157, 154, 202);"></path></g><g class="path" style="opacity: 1; transform-origin: 3.68003px -0.359879px; animation: 3.22581s linear -1.27742s infinite normal forwards running blink-d2d38f3f-9b23-4526-bd78-9803ded92d53;"><path d="M117.28-15.60L117.28-15.60L117.40-17.20L117.40-17.20Q117.44-17.56 117.96-17.56L117.96-17.56L119.36-17.56L119.20-20.76L119.20-20.92L119.20-20.92Q119.20-21.84 120.60-22.68L120.60-22.68L120.60-22.68Q122.00-23.52 123.16-23.52L123.16-23.52L123.16-23.52Q123.52-23.52 123.52-23.20L123.52-23.20L123.52-23.16L123.52-23.16Q123.36-22.08 123.20-17.60L123.20-17.60L123.20-17.60Q124.96-17.60 125.44-17.68L125.44-17.68L125.44-17.68Q125.92-17.76 125.96-17.76L125.96-17.76L125.96-17.76Q126.24-17.76 126.24-17.28L126.24-17.28L126.24-17.28Q126.24-16.80 125.80-16.06L125.80-16.06L125.80-16.06Q125.36-15.32 124.84-15.28L124.84-15.28L123.16-15.28L123.16-15.28Q123.12-13.92 123.12-10.70L123.12-10.70L123.12-10.70Q123.12-7.48 123.18-5.40L123.18-5.40L123.18-5.40Q123.24-3.32 123.32-2.26L123.32-2.26L123.32-2.26Q123.40-1.20 123.50-0.56L123.50-0.56L123.50-0.56Q123.60 0.08 123.66 0.36L123.66 0.36L123.66 0.36Q123.72 0.64 123.72 0.72L123.72 0.72L123.72 0.72Q123.72 1.12 123.20 1.16L123.20 1.16L123.20 1.16Q121.64 1.16 120.10 0.72L120.10 0.72L120.10 0.72Q118.56 0.28 118.56-0.80L118.56-0.80L118.56-0.80Q119.40-7.52 119.40-15.24L119.40-15.24L119.40-15.24Q118.32-15.24 117.76-15.16L117.76-15.16L117.72-15.16L117.72-15.16Q117.36-15.16 117.28-15.60" fill="#220b09" stroke="none" stroke-width="none" transform="translate(-118.07996821403503,10.820121667385102)" style="fill: rgb(100, 84, 129);"></path></g><g class="path" style="opacity: 1; transform-origin: 22.16px 2.04012px; animation: 3.22581s linear -1.17097s infinite normal forwards running blink-d2d38f3f-9b23-4526-bd78-9803ded92d53;"><path d="M146.44-13.76L146.24-10.72L146.40-9.32L146.40-9.32Q146.40-8.56 144.96-8.56L144.96-8.56L144.96-8.56Q142.04-8.56 142.04-10.76L142.04-10.76L142.04-10.76Q142.04-11.28 142.32-12.20L142.32-12.20L142.32-12.20Q142.60-13.12 142.60-13.80L142.60-13.80L142.60-13.80Q142.60-14.48 142.20-14.98L142.20-14.98L142.20-14.98Q141.80-15.48 141.04-15.48L141.04-15.48L141.04-15.48Q140.28-15.48 139.74-14.94L139.74-14.94L139.74-14.94Q139.20-14.40 139.08-13.84L139.08-13.84L138.92-13.28L138.92-13.28Q138.68-12.04 138.68-9.14L138.68-9.14L138.68-9.14Q138.68-6.24 138.76-4.58L138.76-4.58L138.76-4.58Q138.84-2.92 138.92-2.30L138.92-2.30L138.92-2.30Q139-1.68 139-1.56L139-1.56L139-1.56Q139-0.56 137.76 0.06L137.76 0.06L137.76 0.06Q136.52 0.68 135.28 0.68L135.28 0.68L135.28 0.68Q134.04 0.68 134.04 0.16L134.04 0.16L134.24-1.08L134.24-1.08Q134.80-4.56 134.80-10.16L134.80-10.16L134.80-10.16Q134.80-15.76 134.40-17.76L134.40-17.76L134.40-17.76Q134.40-18.24 135.24-18.24L135.24-18.24L135.24-18.24Q137.40-18.24 138.12-16.76L138.12-16.76L138.12-16.76Q138.16-16.60 138.26-16.60L138.26-16.60L138.26-16.60Q138.36-16.60 138.80-16.96L138.80-16.96L138.80-16.96Q140.12-18.04 141.92-18.04L141.92-18.04L141.92-18.04Q143.04-18.04 144.16-17.60L144.16-17.60L144.16-17.60Q146.44-16.68 146.44-13.76L146.44-13.76" fill="#220b09" stroke="none" stroke-width="none" transform="translate(-118.07996821403503,10.820121667385102)" style="fill: rgb(34, 11, 9);"></path></g><g class="path" style="opacity: 1; transform-origin: 36.42px 2.12012px; animation: 3.22581s linear -1.06452s infinite normal forwards running blink-d2d38f3f-9b23-4526-bd78-9803ded92d53;"><path d="M152.04-10.16L152.04-10.16L152.08-9.16L152.08-9.16Q152.08-8.92 152.40-8.92L152.40-8.92L152.40-8.92Q153.68-9.04 154.64-9.58L154.64-9.58L154.64-9.58Q155.60-10.12 156.08-10.80L156.08-10.80L156.08-10.80Q157.04-12.28 157.12-13.36L157.12-13.36L157.16-13.84L157.16-13.84Q157.16-16 155.44-16L155.44-16L155.44-16Q154.16-16 153.36-14.88L153.36-14.88L153.36-14.88Q152.04-13.12 152.04-10.16zM160.76-4.84L160.76-4.84L160.76-4.84Q160.76-3.32 160.14-2.18L160.14-2.18L160.14-2.18Q159.52-1.04 158.74-0.50L158.74-0.50L158.74-0.50Q157.96 0.04 156.92 0.36L156.92 0.36L156.92 0.36Q155.60 0.76 154.40 0.76L154.40 0.76L154.40 0.76Q151.04 0.76 149.44-1.76L149.44-1.76L149.44-1.76Q147.84-4.28 147.84-8.18L147.84-8.18L147.84-8.18Q147.84-12.08 149.82-15.12L149.82-15.12L149.82-15.12Q151.80-18.16 155.76-18.16L155.76-18.16L155.76-18.16Q159.36-18.16 160.64-15.64L160.64-15.64L160.64-15.64Q161.16-14.68 161.16-13.82L161.16-13.82L161.16-13.82Q161.16-12.96 161.08-12.46L161.08-12.46L161.08-12.46Q161-11.96 160.52-10.96L160.52-10.96L160.52-10.96Q160.04-9.96 159.24-9.16L159.24-9.16L159.24-9.16Q158.44-8.36 156.72-7.64L156.72-7.64L156.72-7.64Q155-6.92 152.68-6.68L152.68-6.68L152.68-6.68Q152.36-6.68 152.36-6.40L152.36-6.40L152.36-6.40Q152.36-6.04 152.62-5.34L152.62-5.34L152.62-5.34Q152.88-4.64 153.20-4.16L153.20-4.16L153.20-4.16Q154.08-3.04 155.80-3.04L155.80-3.04L155.80-3.04Q157.52-3.04 158.72-4.16L158.72-4.16L158.72-4.16Q159.36-4.76 159.76-5.64L159.76-5.64L159.76-5.64Q159.92-5.96 160.18-5.96L160.18-5.96L160.18-5.96Q160.44-5.96 160.60-5.52L160.60-5.52L160.60-5.52Q160.76-5.08 160.76-4.84" fill="#220b09" stroke="none" stroke-width="none" transform="translate(-118.07996821403503,10.820121667385102)" style="fill: rgb(211, 76, 49);"></path></g><g class="path" style="opacity: 1; transform-origin: 50.56px 2.18012px; animation: 3.22581s linear -0.958065s infinite normal forwards running blink-d2d38f3f-9b23-4526-bd78-9803ded92d53;"><path d="M175.12-5.48L175.12-5.48L175.12-5.48Q175.12-3.76 174.46-2.48L174.46-2.48L174.46-2.48Q173.80-1.20 172.96-0.60L172.96-0.60L172.96-0.60Q172.12 0 170.96 0.36L170.96 0.36L170.96 0.36Q169.44 0.84 168.20 0.84L168.20 0.84L168.20 0.84Q165.60 0.84 163.88-0.18L163.88-0.18L163.88-0.18Q162.16-1.20 162.16-3.44L162.16-3.44L162.16-3.44Q162.16-4.76 162.88-5.60L162.88-5.60L162.88-5.60Q164-6.84 165.56-6.84L165.56-6.84L165.56-6.84Q166.04-6.84 166.04-6.40L166.04-6.40L166.04-6.40Q166.04-6.36 165.86-5.78L165.86-5.78L165.86-5.78Q165.68-5.20 165.68-4.32L165.68-4.32L165.68-4.32Q165.68-3.44 166.38-2.76L166.38-2.76L166.38-2.76Q167.08-2.08 168.08-2.08L168.08-2.08L168.08-2.08Q169.08-2.08 169.68-2.42L169.68-2.42L169.68-2.42Q170.28-2.76 170.52-3.28L170.52-3.28L170.52-3.28Q170.88-4 170.88-4.64L170.88-4.64L170.88-4.64Q170.88-5.80 169.72-6.64L169.72-6.64L169.72-6.64Q168.56-7.48 167.16-7.96L167.16-7.96L167.16-7.96Q165.76-8.44 164.60-9.56L164.60-9.56L164.60-9.56Q163.44-10.68 163.44-12.36L163.44-12.36L163.44-12.36Q163.44-15.24 165.26-16.68L165.26-16.68L165.26-16.68Q167.08-18.12 170.20-18.12L170.20-18.12L170.20-18.12Q171.56-18.12 173.06-17.74L173.06-17.74L173.06-17.74Q174.56-17.36 174.56-16.46L174.56-16.46L174.56-16.46Q174.56-15.56 174.26-14.80L174.26-14.80L174.26-14.80Q173.96-14.04 173.52-14.04L173.52-14.04L173.52-14.04Q173.28-14.04 173.20-14.22L173.20-14.22L173.20-14.22Q173.12-14.40 172.92-14.64L172.92-14.64L172.92-14.64Q172.72-14.88 171.96-15.26L171.96-15.26L171.96-15.26Q171.20-15.64 170.66-15.64L170.66-15.64L170.66-15.64Q170.12-15.64 169.94-15.62L169.94-15.62L169.94-15.62Q169.76-15.60 169.32-15.50L169.32-15.50L169.32-15.50Q168.88-15.40 168.52-15.20L168.52-15.20L168.52-15.20Q167.60-14.68 167.60-13.68L167.60-13.68L167.60-13.68Q167.60-13.04 167.88-12.74L167.88-12.74L167.88-12.74Q168.16-12.44 168.32-12.28L168.32-12.28L168.32-12.28Q168.48-12.12 168.88-11.90L168.88-11.90L168.88-11.90Q169.28-11.68 169.44-11.60L169.44-11.60L169.44-11.60Q169.60-11.52 170.16-11.26L170.16-11.26L170.16-11.26Q170.72-11 170.88-10.92L170.88-10.92L170.88-10.92Q175.12-8.92 175.12-5.48" fill="#220b09" stroke="none" stroke-width="none" transform="translate(-118.07996821403503,10.820121667385102)" style="fill: rgb(232, 132, 50);"></path></g><g class="path" style="opacity: 1; transform-origin: 65.4px 2.04012px; animation: 3.22581s linear -0.851613s infinite normal forwards running blink-d2d38f3f-9b23-4526-bd78-9803ded92d53;"><path d="M190.56-17.80L190.56-17.80L190.56-17.80Q189.84-13.48 189.84-6.80L189.84-6.80L189.84-6.80Q189.84-1.88 190.24-0.32L190.24-0.32L190.40 0.20L190.40 0.20Q190.40 0.72 189.52 0.72L189.52 0.72L189.52 0.72Q186.44 0.72 186-1L186-1L186-1Q185.96-1.20 185.82-1.20L185.82-1.20L185.82-1.20Q185.68-1.20 185.56-1.04L185.56-1.04L185.56-1.04Q184.32 0.60 181.72 0.60L181.72 0.60L181.72 0.60Q180.28 0.60 178.72-0.12L178.72-0.12L178.72-0.12Q177.76-0.56 177.16-1.66L177.16-1.66L177.16-1.66Q176.56-2.76 176.56-4.36L176.56-4.36L177.16-13.12L177.16-13.12Q177.16-15.88 176.60-17.04L176.60-17.04L176.60-17.04Q176.40-17.48 176.40-17.60L176.40-17.60L176.40-17.60Q176.40-17.84 176.60-17.92L176.60-17.92L176.60-17.92Q177.24-18.12 178.24-18.12L178.24-18.12L178.24-18.12Q182.12-18.12 182.12-14.92L182.12-14.92L182.12-14.92Q182.12-13.92 181.30-10.36L181.30-10.36L181.30-10.36Q180.48-6.80 180.48-5.30L180.48-5.30L180.48-5.30Q180.48-3.80 181.14-3L181.14-3L181.14-3Q181.80-2.20 182.98-2.20L182.98-2.20L182.98-2.20Q184.16-2.20 184.84-3.04L184.84-3.04L184.84-3.04Q185.52-3.88 185.64-4.72L185.64-4.72L185.76-5.56L185.76-5.56Q185.92-6.96 185.92-10.48L185.92-10.48L185.92-10.48Q185.92-14 185.70-14.94L185.70-14.94L185.70-14.94Q185.48-15.88 185.48-16.12L185.48-16.12L185.48-16.12Q185.48-17.12 187.08-17.70L187.08-17.70L187.08-17.70Q188.68-18.28 189.96-18.28L189.96-18.28L189.96-18.28Q190.56-18.28 190.56-17.80" fill="#220b09" stroke="none" stroke-width="none" transform="translate(-118.07996821403503,10.820121667385102)" style="fill: rgb(255, 49, 45);"></path></g><g class="path" style="opacity: 1; transform-origin: 76.96px -2.61988px; animation: 3.22581s linear -0.745161s infinite normal forwards running blink-d2d38f3f-9b23-4526-bd78-9803ded92d53;"><path d="M197.88-22.88L197.88-22.88L197.64-8.20L197.64-8.20Q197.64-1.32 198.08 0.04L198.08 0.04L198.08 0.04Q198.20 0.28 198.20 0.52L198.20 0.52L198.20 0.52Q198.20 1 197.04 1L197.04 1L197.04 1Q195.88 1 194.46 0.42L194.46 0.42L194.46 0.42Q193.04-0.16 193.04-1.08L193.04-1.08L193.04-1.08Q193.84-6.68 193.84-16.04L193.84-16.04L193.68-22.16L193.68-22.16Q193.60-23.28 193.22-24.08L193.22-24.08L193.22-24.08Q192.84-24.88 192.48-25.12L192.48-25.12L192.16-25.32L192.16-25.32Q191.88-25.48 191.88-25.68L191.88-25.68L191.88-25.68Q191.88-26.24 193.62-27.06L193.62-27.06L193.62-27.06Q195.36-27.88 197-27.88L197-27.88L197-27.88Q197.64-27.88 197.72-27.44L197.72-27.44L197.72-27.44Q197.88-26.40 197.88-22.88" fill="#220b09" stroke="none" stroke-width="none" transform="translate(-118.07996821403503,10.820121667385102)" style="fill: rgb(253, 50, 98);"></path></g><g class="path" style="opacity: 1; transform-origin: 86.4px -0.359879px; animation: 3.22581s linear -0.63871s infinite normal forwards running blink-d2d38f3f-9b23-4526-bd78-9803ded92d53;"><path d="M200-15.60L200-15.60L200.12-17.20L200.12-17.20Q200.16-17.56 200.68-17.56L200.68-17.56L202.08-17.56L201.92-20.76L201.92-20.92L201.92-20.92Q201.92-21.84 203.32-22.68L203.32-22.68L203.32-22.68Q204.72-23.52 205.88-23.52L205.88-23.52L205.88-23.52Q206.24-23.52 206.24-23.20L206.24-23.20L206.24-23.16L206.24-23.16Q206.08-22.08 205.92-17.60L205.92-17.60L205.92-17.60Q207.68-17.60 208.16-17.68L208.16-17.68L208.16-17.68Q208.64-17.76 208.68-17.76L208.68-17.76L208.68-17.76Q208.96-17.76 208.96-17.28L208.96-17.28L208.96-17.28Q208.96-16.80 208.52-16.06L208.52-16.06L208.52-16.06Q208.08-15.32 207.56-15.28L207.56-15.28L205.88-15.28L205.88-15.28Q205.84-13.92 205.84-10.70L205.84-10.70L205.84-10.70Q205.84-7.48 205.90-5.40L205.90-5.40L205.90-5.40Q205.96-3.32 206.04-2.26L206.04-2.26L206.04-2.26Q206.12-1.20 206.22-0.56L206.22-0.56L206.22-0.56Q206.32 0.08 206.38 0.36L206.38 0.36L206.38 0.36Q206.44 0.64 206.44 0.72L206.44 0.72L206.44 0.72Q206.44 1.12 205.92 1.16L205.92 1.16L205.92 1.16Q204.36 1.16 202.82 0.72L202.82 0.72L202.82 0.72Q201.28 0.28 201.28-0.80L201.28-0.80L201.28-0.80Q202.12-7.52 202.12-15.24L202.12-15.24L202.12-15.24Q201.04-15.24 200.48-15.16L200.48-15.16L200.44-15.16L200.44-15.16Q200.08-15.16 200-15.60" fill="#220b09" stroke="none" stroke-width="none" transform="translate(-118.07996821403503,10.820121667385102)" style="fill: rgb(240, 195, 169);"></path></g><g class="path" style="opacity: 1; transform-origin: 94.98px 9.06012px; animation: 3.22581s linear -0.532258s infinite normal forwards running blink-d2d38f3f-9b23-4526-bd78-9803ded92d53;"><path d="M212.80-3.40L212.80-3.40L213.76-3.44L213.76-3.44Q214.72-3.44 215.06-3.02L215.06-3.02L215.06-3.02Q215.40-2.60 215.40-1.54L215.40-1.54L215.40-1.54Q215.40-0.48 214.94 0.02L214.94 0.02L214.94 0.02Q214.48 0.52 213.14 0.52L213.14 0.52L213.14 0.52Q211.80 0.52 211.26 0L211.26 0L211.26 0Q210.72-0.52 210.72-2.28L210.72-2.28L210.72-2.28Q210.72-4.04 211.24-4.04L211.24-4.04L211.68-3.72L211.68-3.72Q212.12-3.40 212.80-3.40" fill="#220b09" stroke="none" stroke-width="none" transform="translate(-118.07996821403503,10.820121667385102)" style="fill: rgb(157, 154, 202);"></path></g><g class="path" style="opacity: 1; transform-origin: 95.1px -6.75988px; animation: 3.22581s linear -0.425806s infinite normal forwards running blink-d2d38f3f-9b23-4526-bd78-9803ded92d53;"><path d="M210.44-26.20L210.44-26.20L210.44-26.20Q210.40-26.40 210.40-26.80L210.40-26.80L210.40-26.80Q210.40-27.20 211.06-27.60L211.06-27.60L211.06-27.60Q211.72-28 212.60-28.16L212.60-28.16L212.60-28.16Q214.12-28.48 215.04-28.48L215.04-28.48L215.04-28.48Q215.96-28.48 215.96-27.68L215.96-27.68L215.88-27.20L215.88-27.20Q214.36-20.88 214.36-9.40L214.36-9.40L214.36-9.40Q214.36-8.12 214.40-7.74L214.40-7.74L214.40-7.74Q214.44-7.36 214.40-7.24L214.40-7.24L214.40-7.24Q214.36-7.12 213.98-6.90L213.98-6.90L213.98-6.90Q213.60-6.68 212.96-6.68L212.96-6.68L212.96-6.68Q211.56-6.68 211.52-7.60L211.52-7.60L211.52-7.60Q211.52-21.80 210.44-26.20" fill="#220b09" stroke="none" stroke-width="none" transform="translate(-118.07996821403503,10.820121667385102)" style="fill: rgb(100, 84, 129);"></path></g><g class="path" style="opacity: 1; transform-origin: 104.58px 9.06012px; animation: 3.22581s linear -0.319355s infinite normal forwards running blink-d2d38f3f-9b23-4526-bd78-9803ded92d53;"><path d="M222.40-3.40L222.40-3.40L223.36-3.44L223.36-3.44Q224.32-3.44 224.66-3.02L224.66-3.02L224.66-3.02Q225-2.60 225-1.54L225-1.54L225-1.54Q225-0.48 224.54 0.02L224.54 0.02L224.54 0.02Q224.08 0.52 222.74 0.52L222.74 0.52L222.74 0.52Q221.40 0.52 220.86 0L220.86 0L220.86 0Q220.32-0.52 220.32-2.28L220.32-2.28L220.32-2.28Q220.32-4.04 220.84-4.04L220.84-4.04L221.28-3.72L221.28-3.72Q221.72-3.40 222.40-3.40" fill="#220b09" stroke="none" stroke-width="none" transform="translate(-118.07996821403503,10.820121667385102)" style="fill: rgb(34, 11, 9);"></path></g><g class="path" style="opacity: 1; transform-origin: 104.7px -6.75988px; animation: 3.22581s linear -0.212903s infinite normal forwards running blink-d2d38f3f-9b23-4526-bd78-9803ded92d53;"><path d="M220.04-26.20L220.04-26.20L220.04-26.20Q220-26.40 220-26.80L220-26.80L220-26.80Q220-27.20 220.66-27.60L220.66-27.60L220.66-27.60Q221.32-28 222.20-28.16L222.20-28.16L222.20-28.16Q223.72-28.48 224.64-28.48L224.64-28.48L224.64-28.48Q225.56-28.48 225.56-27.68L225.56-27.68L225.48-27.20L225.48-27.20Q223.96-20.88 223.96-9.40L223.96-9.40L223.96-9.40Q223.96-8.12 224-7.74L224-7.74L224-7.74Q224.04-7.36 224-7.24L224-7.24L224-7.24Q223.96-7.12 223.58-6.90L223.58-6.90L223.58-6.90Q223.20-6.68 222.56-6.68L222.56-6.68L222.56-6.68Q221.16-6.68 221.12-7.60L221.12-7.60L221.12-7.60Q221.12-21.80 220.04-26.20" fill="#220b09" stroke="none" stroke-width="none" transform="translate(-118.07996821403503,10.820121667385102)" style="fill: rgb(211, 76, 49);"></path></g><g class="path" style="opacity: 1; transform-origin: 114.18px 9.06012px; animation: 3.22581s linear -0.106452s infinite normal forwards running blink-d2d38f3f-9b23-4526-bd78-9803ded92d53;"><path d="M232-3.40L232-3.40L232.96-3.44L232.96-3.44Q233.92-3.44 234.26-3.02L234.26-3.02L234.26-3.02Q234.60-2.60 234.60-1.54L234.60-1.54L234.60-1.54Q234.60-0.48 234.14 0.02L234.14 0.02L234.14 0.02Q233.68 0.52 232.34 0.52L232.34 0.52L232.34 0.52Q231 0.52 230.46 0L230.46 0L230.46 0Q229.92-0.52 229.92-2.28L229.92-2.28L229.92-2.28Q229.92-4.04 230.44-4.04L230.44-4.04L230.88-3.72L230.88-3.72Q231.32-3.40 232-3.40" fill="#220b09" stroke="none" stroke-width="none" transform="translate(-118.07996821403503,10.820121667385102)" style="fill: rgb(232, 132, 50);"></path></g><g class="path" style="opacity: 1; transform-origin: 114.3px -6.75988px; animation: 3.22581s linear 0s infinite normal forwards running blink-d2d38f3f-9b23-4526-bd78-9803ded92d53;"><path d="M229.64-26.20L229.64-26.20L229.64-26.20Q229.60-26.40 229.60-26.80L229.60-26.80L229.60-26.80Q229.60-27.20 230.26-27.60L230.26-27.60L230.26-27.60Q230.92-28 231.80-28.16L231.80-28.16L231.80-28.16Q233.32-28.48 234.24-28.48L234.24-28.48L234.24-28.48Q235.16-28.48 235.16-27.68L235.16-27.68L235.08-27.20L235.08-27.20Q233.56-20.88 233.56-9.40L233.56-9.40L233.56-9.40Q233.56-8.12 233.60-7.74L233.60-7.74L233.60-7.74Q233.64-7.36 233.60-7.24L233.60-7.24L233.60-7.24Q233.56-7.12 233.18-6.90L233.18-6.90L233.18-6.90Q232.80-6.68 232.16-6.68L232.16-6.68L232.16-6.68Q230.76-6.68 230.72-7.60L230.72-7.60L230.72-7.60Q230.72-21.80 229.64-26.20" fill="#220b09" stroke="none" stroke-width="none" transform="translate(-118.07996821403503,10.820121667385102)" style="fill: rgb(255, 49, 45);"></path></g></g>
</g>
</g>
<style id="blink-d2d38f3f-9b23-4526-bd78-9803ded92d53" data-anikit="">@keyframes blink-d2d38f3f-9b23-4526-bd78-9803ded92d53 {
  0% { opacity: 1; }
  49.75% { opacity: 1; }
  50.25% { opacity: 0; }
  99.5% { opacity: 0; }
  100% { opacity: 1; }
}</style></svg>