<?xml version="1.0" encoding="utf-8"?>
<svg xmlns="http://www.w3.org/2000/svg" style="margin: auto; background: none; display: block; shape-rendering: auto;" width="280" height="100" preserveAspectRatio="xMidYMid">
<style type="text/css">
  text {
    text-anchor: middle; font-size: 40px; opacity: 0;
  }
</style>
<g style="transform-origin:140px 50px;transform:scale(1)">
<g transform="translate(140,50)">
  <g transform="translate(0,0)"><g class="path" style="transform: matrix(1, 0, 0, 1, 0, 14.925); opacity: 0.05; transform-origin: -54.02px -2.77441px; animation: 2.94118s linear 0s 1 normal forwards running float-btt-in-f4fc4c82-3717-49ab-9eb4-de4cb72fa03a;"><path d="M4.32-28.48L4.32-28.48L10.08-28.16L10.08-28.16Q13.92-28.16 15.60-29.08L15.60-29.08L15.60-29.08Q15.84-29.24 16.02-29.24L16.02-29.24L16.02-29.24Q16.20-29.24 16.20-28.68L16.20-28.68L16.20-28.68Q16.20-28.12 15.52-26.84L15.52-26.84L15.52-26.84Q14.52-24.88 12.64-24.88L12.64-24.88L10.44-24.92L10.44-24.92Q10.12-24.92 10.04-24.56L10.04-24.56L10.04-24.56Q9.76-18.68 9.76-11.86L9.76-11.86L9.76-11.86Q9.76-5.04 10.32-1.60L10.32-1.60L10.32-1.40L10.32-1.40Q10.32-0.40 8.42 0.20L8.42 0.20L8.42 0.20Q6.52 0.80 4.84 0.80L4.84 0.80L4.84 0.80Q4.04 0.80 4.04 0.36L4.04 0.36L4.04 0.36Q4.04 0.24 4.16-0.20L4.16-0.20L4.16-0.20Q4.60-1.08 4.94-8.72L4.94-8.72L4.94-8.72Q5.28-16.36 5.28-20.24L5.28-20.24L5.20-24.60L5.20-24.60Q5.20-24.84 4.96-24.88L4.96-24.88L4.96-24.88Q4.12-25.04 3.04-25.04L3.04-25.04L3.04-25.04Q0.88-25.04-0.16-24.16L-0.16-24.16L-0.16-24.16Q-0.44-23.96-0.70-23.96L-0.70-23.96L-0.70-23.96Q-0.96-23.96-0.96-24.28L-0.96-24.28L-0.96-24.28Q-0.96-24.76-0.46-25.60L-0.46-25.60L-0.46-25.60Q0.04-26.44 0.60-27.04L0.60-27.04L0.60-27.04Q1.96-28.48 4.32-28.48" fill="#220b09" stroke="none" stroke-width="none" transform="translate(-61.63999652862549,11.445593413246993)" style="fill: rgb(34, 11, 9);"></path></g><g class="path" style="transform: matrix(1, 0, 0, 1, 0, 14.925); opacity: 0.05; transform-origin: -40.68px 2.66559px; animation: 2.94118s linear 0.215686s 1 normal forwards running float-btt-in-f4fc4c82-3717-49ab-9eb4-de4cb72fa03a;"><path d="M27.16-13.76L26.96-10.72L27.12-9.32L27.12-9.32Q27.12-8.56 25.68-8.56L25.68-8.56L25.68-8.56Q22.76-8.56 22.76-10.76L22.76-10.76L22.76-10.76Q22.76-11.28 23.04-12.20L23.04-12.20L23.04-12.20Q23.32-13.12 23.32-13.80L23.32-13.80L23.32-13.80Q23.32-14.48 22.92-14.98L22.92-14.98L22.92-14.98Q22.52-15.48 21.76-15.48L21.76-15.48L21.76-15.48Q21-15.48 20.46-14.94L20.46-14.94L20.46-14.94Q19.92-14.40 19.80-13.84L19.80-13.84L19.64-13.28L19.64-13.28Q19.40-12.04 19.40-9.14L19.40-9.14L19.40-9.14Q19.40-6.24 19.48-4.58L19.48-4.58L19.48-4.58Q19.56-2.92 19.64-2.30L19.64-2.30L19.64-2.30Q19.72-1.68 19.72-1.56L19.72-1.56L19.72-1.56Q19.72-0.56 18.48 0.06L18.48 0.06L18.48 0.06Q17.24 0.68 16 0.68L16 0.68L16 0.68Q14.76 0.68 14.76 0.16L14.76 0.16L14.96-1.08L14.96-1.08Q15.52-4.56 15.52-10.16L15.52-10.16L15.52-10.16Q15.52-15.76 15.12-17.76L15.12-17.76L15.12-17.76Q15.12-18.24 15.96-18.24L15.96-18.24L15.96-18.24Q18.12-18.24 18.84-16.76L18.84-16.76L18.84-16.76Q18.88-16.60 18.98-16.60L18.98-16.60L18.98-16.60Q19.08-16.60 19.52-16.96L19.52-16.96L19.52-16.96Q20.84-18.04 22.64-18.04L22.64-18.04L22.64-18.04Q23.76-18.04 24.88-17.60L24.88-17.60L24.88-17.60Q27.16-16.68 27.16-13.76L27.16-13.76" fill="#220b09" stroke="none" stroke-width="none" transform="translate(-61.63999652862549,11.445593413246993)" style="fill: rgb(211, 76, 49);"></path></g><g class="path" style="transform: matrix(1, 0, 0, 1, 0, 14.925); opacity: 0.05; transform-origin: -26.22px 8.04559px; animation: 2.94118s linear 0.431373s 1 normal forwards running float-btt-in-f4fc4c82-3717-49ab-9eb4-de4cb72fa03a;"><path d="M36.04 11.08L36.04 11.08L36.04 11.08Q36.04 11.56 35.56 11.56L35.56 11.56L35.52 11.56L35.52 11.56Q34.20 11.56 32.54 10.64L32.54 10.64L32.54 10.64Q30.88 9.72 30.88 8.52L30.88 8.52L30.88 8.52Q30.88 7.32 32.40 4.34L32.40 4.34L32.40 4.34Q33.92 1.36 33.92 0.36L33.92 0.36L33.92 0.36Q33.92-0.72 32.88-3.52L32.88-3.52L32.88-3.52Q31.56-7.16 30.78-9.44L30.78-9.44L30.78-9.44Q30-11.72 29.10-13.46L29.10-13.46L29.10-13.46Q28.20-15.20 27.80-15.52L27.80-15.52L27.40-15.80L27.40-15.80Q26.96-16.04 26.96-16.32L26.96-16.32L26.96-16.32Q26.96-16.88 28.70-17.46L28.70-17.46L28.70-17.46Q30.44-18.04 31.76-18.04L31.76-18.04L31.76-18.04Q32.36-18.04 32.76-17.08L32.76-17.08L32.76-17.08Q33.48-15.20 34.32-11.88L34.32-11.88L34.32-11.88Q36.36-5.08 36.88-5.08L36.88-5.08L36.88-5.08Q37.24-5.08 38.34-7.88L38.34-7.88L38.34-7.88Q39.44-10.68 39.44-12.40L39.44-12.40L39.44-12.40Q39.44-15.40 37.68-15.92L37.68-15.92L37.68-15.92Q37.28-16 37.28-16.32L37.28-16.32L37.28-16.32Q37.28-17.04 39.16-17.70L39.16-17.70L39.16-17.70Q41.04-18.36 42.56-18.36L42.56-18.36L42.56-18.36Q43.88-18.36 43.88-16.64L43.88-16.64L43.88-16.64Q43.88-15.32 43.32-13.56L43.32-13.56L43.32-13.56Q42.76-11.80 42.28-10.78L42.28-10.78L42.28-10.78Q41.80-9.76 39.90-6.06L39.90-6.06L39.90-6.06Q38-2.36 36.76 0.44L36.76 0.44L36.76 0.44Q35.40 3.80 35.40 7.28L35.40 7.28L35.40 7.28Q35.40 9.12 35.72 10.04L35.72 10.04L35.72 10.04Q36.04 10.96 36.04 11.08" fill="#220b09" stroke="none" stroke-width="none" transform="translate(-61.63999652862549,11.445593413246993)" style="fill: rgb(232, 132, 50);"></path></g><g class="path" style="transform: matrix(1, 0, 0, 1, 0, 14.925); opacity: 0.05; transform-origin: -3px 2.66559px; animation: 2.94118s linear 0.647059s 1 normal forwards running float-btt-in-f4fc4c82-3717-49ab-9eb4-de4cb72fa03a;"><path d="M65.08-12L65.08-12L65-6.88L65-6.88Q65-1.56 66.16-0.48L66.16-0.48L66.16-0.48Q66.32-0.32 66.32-0.12L66.32-0.12L66.32-0.12Q66.32 0.48 63.74 0.48L63.74 0.48L63.74 0.48Q61.16 0.48 61-1.04L61-1.04L61-1.04Q60.96-1.40 60.96-2.52L60.96-2.52L61.12-8.92L61.12-8.92Q61.12-9.20 60.80-9.20L60.80-9.20L60.80-9.20Q58.88-9.20 57.20-8.12L57.20-8.12L57.20-8.12Q55.52-7.04 55.52-5.36L55.52-5.36L55.52-5.36Q55.52-4.48 56-3.88L56-3.88L56-3.88Q56.48-3.28 57.18-3.28L57.18-3.28L57.18-3.28Q57.88-3.28 58.34-3.56L58.34-3.56L58.34-3.56Q58.80-3.84 58.88-3.88L58.88-3.88L58.88-3.88Q59.56-3.80 59.56-2.46L59.56-2.46L59.56-2.46Q59.56-1.12 58.32-0.30L58.32-0.30L58.32-0.30Q57.08 0.52 55.72 0.52L55.72 0.52L55.72 0.52Q54.36 0.52 53.38 0.04L53.38 0.04L53.38 0.04Q52.40-0.44 51.96-1.04L51.96-1.04L51.96-1.04Q51.52-1.64 51.24-2.40L51.24-2.40L51.24-2.40Q50.96-3.32 50.96-4L50.96-4L50.96-4Q50.96-6.80 52.72-8.48L52.72-8.48L52.72-8.48Q54.48-10.16 57.24-10.88L57.24-10.88L57.24-10.88Q60.88-11.60 61.04-12.20L61.04-12.20L61.04-12.20Q61.16-12.64 61.16-13.68L61.16-13.68L61.16-13.68Q61.16-15.80 59-15.80L59-15.80L59-15.80Q58.08-15.80 57.36-15.22L57.36-15.22L57.36-15.22Q56.64-14.64 56.64-13.76L56.64-13.76L56.88-12.80L56.88-12.80Q56.80-12.12 55.44-12L55.44-12L55-11.96L55-11.96Q53.80-11.96 53.10-12.56L53.10-12.56L53.10-12.56Q52.40-13.16 52.40-14.16L52.40-14.16L52.40-14.16Q52.40-14.80 52.82-15.58L52.82-15.58L52.82-15.58Q53.24-16.36 53.88-16.84L53.88-16.84L53.88-16.84Q54.52-17.32 55.86-17.70L55.86-17.70L55.86-17.70Q57.20-18.08 58.44-18.08L58.44-18.08L58.44-18.08Q59.68-18.08 60.36-18L60.36-18L60.36-18Q61.04-17.92 62.22-17.62L62.22-17.62L62.22-17.62Q63.40-17.32 64.18-16.48L64.18-16.48L64.18-16.48Q64.96-15.64 65.02-14.70L65.02-14.70L65.02-14.70Q65.08-13.76 65.08-12" fill="#220b09" stroke="none" stroke-width="none" transform="translate(-61.63999652862549,11.445593413246993)" style="fill: rgb(255, 49, 45);"></path></g><g class="path" style="transform: matrix(1, 0, 0, 1, 0, 14.925); opacity: 0.05; transform-origin: 12.7px 8.44559px; animation: 2.94118s linear 0.862745s 1 normal forwards running float-btt-in-f4fc4c82-3717-49ab-9eb4-de4cb72fa03a;"><path d="M70.16-16.14L70.16-16.14L70.16-16.14Q71.04-17.04 72.48-17.66L72.48-17.66L72.48-17.66Q73.92-18.28 75.24-18.28L75.24-18.28L75.24-18.28Q76.56-18.28 77.92-17.68L77.92-17.68L77.92-17.68Q78.08-17.68 78.16-17.76L78.16-17.76L78.16-17.76Q79.20-18.80 81.20-18.80L81.20-18.80L81.20-18.80Q81.68-18.80 81.68-18.36L81.68-18.36L81.68-18.36Q81.68-18.32 81.60-18L81.60-18L81.60-18Q81.52-17.68 81.40-17.06L81.40-17.06L81.40-17.06Q81.28-16.44 81.20-15.56L81.20-15.56L81.20-15.56Q80.92-13.28 80.90-10.52L80.90-10.52L80.90-10.52Q80.88-7.76 80.88-5L80.88-5L81 3.40L81 3.40Q81 7.44 78.92 10.12L78.92 10.12L78.92 10.12Q78.08 11.20 76.38 12L76.38 12L76.38 12Q74.68 12.80 72.40 12.80L72.40 12.80L72.40 12.80Q71.88 12.48 71.88 12.16L71.88 12.16L71.88 12.16Q71.88 11.84 72.32 11.64L72.32 11.64L72.32 11.64Q74.84 10.48 75.92 6.14L75.92 6.14L75.92 6.14Q77 1.80 77-7.04L77-7.04L76.92-12.64L76.80-15.36L76.80-15.36Q76.80-15.72 75.68-15.88L75.68-15.88L75.68-15.88Q74.24-15.88 73.26-14.94L73.26-14.94L73.26-14.94Q72.28-14 71.92-12.48L71.92-12.48L71.92-12.48Q71.28-10.04 71.28-8.26L71.28-8.26L71.28-8.26Q71.28-6.48 71.86-5.12L71.86-5.12L71.86-5.12Q72.44-3.76 73.88-3.76L73.88-3.76L73.88-3.76Q74.28-3.76 74.62-3.92L74.62-3.92L74.62-3.92Q74.96-4.08 75.08-4.08L75.08-4.08L75.08-4.08Q75.48-4.08 75.48-3.28L75.48-3.28L75.48-3.28Q75.48-2.48 75.36-1.98L75.36-1.98L75.36-1.98Q75.24-1.48 74.88-0.88L74.88-0.88L74.88-0.88Q74.08 0.44 71.76 0.44L71.76 0.44L71.76 0.44Q69.44 0.44 68.44-1.24L68.44-1.24L68.44-1.24Q67.40-2.96 67.24-4.32L67.24-4.32L67.24-4.32Q67.00-6.36 67.00-7L67.00-7L67.00-7Q67.00-7.64 67.02-8.02L67.02-8.02L67.02-8.02Q67.04-8.40 67.22-9.54L67.22-9.54L67.22-9.54Q67.40-10.68 67.70-11.70L67.70-11.70L67.70-11.70Q68.00-12.72 68.64-13.98L68.64-13.98L68.64-13.98Q69.28-15.24 70.16-16.14" fill="#220b09" stroke="none" stroke-width="none" transform="translate(-61.63999652862549,11.445593413246993)" style="fill: rgb(253, 50, 98);"></path></g><g class="path" style="transform: matrix(1, 0, 0, 1, 0, 14.925); opacity: 0.05; transform-origin: 28.76px 2.66559px; animation: 2.94118s linear 1.07843s 1 normal forwards running float-btt-in-f4fc4c82-3717-49ab-9eb4-de4cb72fa03a;"><path d="M96.84-12L96.84-12L96.76-6.88L96.76-6.88Q96.76-1.56 97.92-0.48L97.92-0.48L97.92-0.48Q98.08-0.32 98.08-0.12L98.08-0.12L98.08-0.12Q98.08 0.48 95.50 0.48L95.50 0.48L95.50 0.48Q92.92 0.48 92.76-1.04L92.76-1.04L92.76-1.04Q92.72-1.40 92.72-2.52L92.72-2.52L92.88-8.92L92.88-8.92Q92.88-9.20 92.56-9.20L92.56-9.20L92.56-9.20Q90.64-9.20 88.96-8.12L88.96-8.12L88.96-8.12Q87.28-7.04 87.28-5.36L87.28-5.36L87.28-5.36Q87.28-4.48 87.76-3.88L87.76-3.88L87.76-3.88Q88.24-3.28 88.94-3.28L88.94-3.28L88.94-3.28Q89.64-3.28 90.10-3.56L90.10-3.56L90.10-3.56Q90.56-3.84 90.64-3.88L90.64-3.88L90.64-3.88Q91.32-3.80 91.32-2.46L91.32-2.46L91.32-2.46Q91.32-1.12 90.08-0.30L90.08-0.30L90.08-0.30Q88.84 0.52 87.48 0.52L87.48 0.52L87.48 0.52Q86.12 0.52 85.14 0.04L85.14 0.04L85.14 0.04Q84.16-0.44 83.72-1.04L83.72-1.04L83.72-1.04Q83.28-1.64 83-2.40L83-2.40L83-2.40Q82.72-3.32 82.72-4L82.72-4L82.72-4Q82.72-6.80 84.48-8.48L84.48-8.48L84.48-8.48Q86.24-10.16 89-10.88L89-10.88L89-10.88Q92.64-11.60 92.80-12.20L92.80-12.20L92.80-12.20Q92.92-12.64 92.92-13.68L92.92-13.68L92.92-13.68Q92.92-15.80 90.76-15.80L90.76-15.80L90.76-15.80Q89.84-15.80 89.12-15.22L89.12-15.22L89.12-15.22Q88.40-14.64 88.40-13.76L88.40-13.76L88.64-12.80L88.64-12.80Q88.56-12.12 87.20-12L87.20-12L86.76-11.96L86.76-11.96Q85.56-11.96 84.86-12.56L84.86-12.56L84.86-12.56Q84.16-13.16 84.16-14.16L84.16-14.16L84.16-14.16Q84.16-14.80 84.58-15.58L84.58-15.58L84.58-15.58Q85-16.36 85.64-16.84L85.64-16.84L85.64-16.84Q86.28-17.32 87.62-17.70L87.62-17.70L87.62-17.70Q88.96-18.08 90.20-18.08L90.20-18.08L90.20-18.08Q91.44-18.08 92.12-18L92.12-18L92.12-18Q92.80-17.92 93.98-17.62L93.98-17.62L93.98-17.62Q95.16-17.32 95.94-16.48L95.94-16.48L95.94-16.48Q96.72-15.64 96.78-14.70L96.78-14.70L96.78-14.70Q96.84-13.76 96.84-12" fill="#220b09" stroke="none" stroke-width="none" transform="translate(-61.63999652862549,11.445593413246993)" style="fill: rgb(240, 195, 169);"></path></g><g class="path" style="transform: matrix(1, 0, 0, 1, 0, 14.925); opacity: 0.05; transform-origin: 41.04px -11.6144px; animation: 2.94118s linear 1.29412s 1 normal forwards running float-btt-in-f4fc4c82-3717-49ab-9eb4-de4cb72fa03a;"><path d="M103.40-21.40L103.40-21.40L102.44-21.44L102.44-21.44Q101.36-21.44 101.04-20.92L101.04-20.92L101.04-20.92Q100.96-20.80 100.84-20.80L100.84-20.80L100.84-20.80Q100.32-20.80 100.32-22.58L100.32-22.58L100.32-22.58Q100.32-24.36 100.86-24.84L100.86-24.84L100.86-24.84Q101.40-25.32 102.74-25.32L102.74-25.32L102.74-25.32Q104.08-25.32 104.56-24.86L104.56-24.86L104.56-24.86Q105.04-24.40 105.04-23.32L105.04-23.32L105.04-23.32Q105.04-22.24 104.68-21.82L104.68-21.82L104.68-21.82Q104.32-21.40 103.40-21.40" fill="#220b09" stroke="none" stroke-width="none" transform="translate(-61.63999652862549,11.445593413246993)" style="fill: rgb(157, 154, 202);"></path></g><g class="path" style="transform: matrix(1, 0, 0, 1, 0, 14.925); opacity: 0.05; transform-origin: 40.52px 2.86559px; animation: 2.94118s linear 1.5098s 1 normal forwards running float-btt-in-f4fc4c82-3717-49ab-9eb4-de4cb72fa03a;"><path d="M100.20-1.20L100.20-1.20L100.64-10.52L100.64-10.52Q100.64-13.84 99.88-15.04L99.88-15.04L99.88-15.04Q99.64-15.44 99.32-15.64L99.32-15.64L99.32-15.64Q99.08-15.72 99.08-15.96L99.08-15.96L99.08-15.96Q99.08-16.68 101.12-17.36L101.12-17.36L101.12-17.36Q103.16-18.04 104.10-18.04L104.10-18.04L104.10-18.04Q105.04-18.04 105.08-17.56L105.08-17.56L105.08-17.56Q105.08-16.76 104.86-13.02L104.86-13.02L104.86-13.02Q104.64-9.28 104.64-5.16L104.64-5.16L104.64-5.16Q104.64-1.04 105.12-0.04L105.12-0.04L105.12-0.04Q105.24 0.16 105.24 0.36L105.24 0.36L105.24 0.36Q105.24 0.88 103.72 0.88L103.72 0.88L103.72 0.88Q102.20 0.88 100.60 0.08L100.60 0.08L100.60 0.08Q100.20-0.12 100.20-1.20" fill="#220b09" stroke="none" stroke-width="none" transform="translate(-61.63999652862549,11.445593413246993)" style="fill: rgb(100, 84, 129);"></path></g><g class="path" style="transform: matrix(1, 0, 0, 1, 0, 14.925); opacity: 0.05; transform-origin: 53.36px 2.70559px; animation: 2.94118s linear 1.72549s 1 normal forwards running float-btt-in-f4fc4c82-3717-49ab-9eb4-de4cb72fa03a;"><path d="M107.68 0.28L107.68 0.28L107.68 0.28Q108.40-4.04 108.40-10.08L108.40-10.08L108.40-10.08Q108.40-16.12 108.04-17.92L108.04-17.92L108.04-17.92Q108.04-18.44 109.24-18.44L109.24-18.44L109.24-18.44Q111.08-18.44 111.68-17.04L111.68-17.04L111.68-17.04Q111.72-16.92 111.88-16.92L111.88-16.92L111.88-16.92Q112.04-16.92 112.12-17L112.12-17L112.12-17Q113.36-18.28 115.96-18.28L115.96-18.28L115.96-18.28Q118.56-18.28 120.08-16.96L120.08-16.96L120.08-16.96Q121.60-15.64 121.60-13.12L121.60-13.12L121.60-13.12Q121.60-11.60 121.34-8.80L121.34-8.80L121.34-8.80Q121.08-6 121.08-4.64L121.08-4.64L121.08-4.64Q121.08-1.40 122.16 0.04L122.16 0.04L122.16 0.04Q122.32 0.24 122.32 0.44L122.32 0.44L122.32 0.44Q122.32 0.96 121.20 0.96L121.20 0.96L121.20 0.96Q116.24 0.96 116.24-3.44L116.24-3.44L116.24-3.44Q116.24-5.12 117-8.12L117-8.12L117-8.12Q117.76-11.12 117.76-12.68L117.76-12.68L117.76-12.68Q117.76-15.88 115.12-15.88L115.12-15.88L115.12-15.88Q113.84-15.88 113.18-15.12L113.18-15.12L113.18-15.12Q112.52-14.36 112.44-13.38L112.44-13.38L112.44-13.38Q112.36-12.40 112.36-9.68L112.36-9.68L112.36-9.68Q112.36-5.52 112.64-2.44L112.64-2.44L112.72-1.56L112.72-1.56Q112.72-0.44 111.26 0.18L111.26 0.18L111.26 0.18Q109.80 0.80 108.74 0.80L108.74 0.80L108.74 0.80Q107.68 0.80 107.68 0.28" fill="#220b09" stroke="none" stroke-width="none" transform="translate(-61.63999652862549,11.445593413246993)" style="fill: rgb(34, 11, 9);"></path></g></g>
</g>
</g>
<style id="float-btt-in-f4fc4c82-3717-49ab-9eb4-de4cb72fa03a" data-anikit="">@keyframes float-btt-in-f4fc4c82-3717-49ab-9eb4-de4cb72fa03a
{
  0% {
    animation-timing-function: cubic-bezier(0.2242,0.7499,0.3142,0.8148);
    transform: translate(0px,14.925px) rotate(0deg) scale(1,1) skewX(0deg) skewY(0deg);
    opacity: 0.05;
  }
  100% {
    transform: translate(0px,0px) rotate(0deg) scale(1,1) skewX(0deg) skewY(0deg);
    opacity: 1;
  }
}</style></svg>