<?xml version="1.0" encoding="utf-8"?>
<svg xmlns="http://www.w3.org/2000/svg" style="margin: auto; background: none; display: block; shape-rendering: auto;" width="280" height="100" preserveAspectRatio="xMidYMid">
<style type="text/css">
  text {
    text-anchor: middle; font-size: 59px; opacity: 0;
  }
</style>
<g style="transform-origin: 140px 50px; transform: scale(0.7375);">
<g transform="translate(140,50)">
  <g transform="translate(0,0)"><g class="path" style="transform: scale(1); transform-origin: -108.04px -5.54881px; animation: 1s linear -0.586667s infinite normal forwards running beat-f35a4aaf-5aa2-43ce-8e3e-0f11edba2440;"><path d="M8.64-56.96L8.64-56.96L20.16-56.32L20.16-56.32Q27.84-56.32 31.20-58.16L31.20-58.16L31.20-58.16Q31.68-58.48 32.04-58.48L32.04-58.48L32.04-58.48Q32.40-58.48 32.40-57.36L32.40-57.36L32.40-57.36Q32.40-56.24 31.04-53.68L31.04-53.68L31.04-53.68Q29.04-49.76 25.28-49.76L25.28-49.76L20.88-49.84L20.88-49.84Q20.24-49.84 20.08-49.12L20.08-49.12L20.08-49.12Q19.52-37.36 19.52-23.72L19.52-23.72L19.52-23.72Q19.52-10.08 20.64-3.20L20.64-3.20L20.64-2.80L20.64-2.80Q20.64-0.80 16.84 0.40L16.84 0.40L16.84 0.40Q13.04 1.60 9.68 1.60L9.68 1.60L9.68 1.60Q8.08 1.60 8.08 0.72L8.08 0.72L8.08 0.72Q8.08 0.48 8.32-0.40L8.32-0.40L8.32-0.40Q9.20-2.16 9.88-17.44L9.88-17.44L9.88-17.44Q10.56-32.72 10.56-40.48L10.56-40.48L10.40-49.20L10.40-49.20Q10.40-49.68 9.92-49.76L9.92-49.76L9.92-49.76Q8.24-50.08 6.08-50.08L6.08-50.08L6.08-50.08Q1.76-50.08-0.32-48.32L-0.32-48.32L-0.32-48.32Q-0.88-47.92-1.40-47.92L-1.40-47.92L-1.40-47.92Q-1.92-47.92-1.92-48.56L-1.92-48.56L-1.92-48.56Q-1.92-49.52-0.92-51.20L-0.92-51.20L-0.92-51.20Q0.08-52.88 1.20-54.08L1.20-54.08L1.20-54.08Q3.92-56.96 8.64-56.96" fill="#292664" stroke="none" stroke-width="none" transform="translate(-123.2800235748291,22.8911942354838)" style="fill: rgb(41, 38, 100);"></path></g><g class="path" style="transform: scale(1); transform-origin: -81.36px 5.33119px; animation: 1s linear -0.513333s infinite normal forwards running beat-f35a4aaf-5aa2-43ce-8e3e-0f11edba2440;"><path d="M54.32-27.52L53.92-21.44L54.24-18.64L54.24-18.64Q54.24-17.12 51.36-17.12L51.36-17.12L51.36-17.12Q45.52-17.12 45.52-21.52L45.52-21.52L45.52-21.52Q45.52-22.56 46.08-24.40L46.08-24.40L46.08-24.40Q46.64-26.24 46.64-27.60L46.64-27.60L46.64-27.60Q46.64-28.96 45.84-29.96L45.84-29.96L45.84-29.96Q45.04-30.96 43.52-30.96L43.52-30.96L43.52-30.96Q42-30.96 40.92-29.88L40.92-29.88L40.92-29.88Q39.84-28.80 39.60-27.68L39.60-27.68L39.28-26.56L39.28-26.56Q38.80-24.08 38.80-18.28L38.80-18.28L38.80-18.28Q38.80-12.48 38.96-9.16L38.96-9.16L38.96-9.16Q39.12-5.84 39.28-4.60L39.28-4.60L39.28-4.60Q39.44-3.36 39.44-3.12L39.44-3.12L39.44-3.12Q39.44-1.12 36.96 0.12L36.96 0.12L36.96 0.12Q34.48 1.36 32 1.36L32 1.36L32 1.36Q29.52 1.36 29.52 0.32L29.52 0.32L29.92-2.16L29.92-2.16Q31.04-9.12 31.04-20.32L31.04-20.32L31.04-20.32Q31.04-31.52 30.24-35.52L30.24-35.52L30.24-35.52Q30.24-36.48 31.92-36.48L31.92-36.48L31.92-36.48Q36.24-36.48 37.68-33.52L37.68-33.52L37.68-33.52Q37.76-33.20 37.96-33.20L37.96-33.20L37.96-33.20Q38.16-33.20 39.04-33.92L39.04-33.92L39.04-33.92Q41.68-36.08 45.28-36.08L45.28-36.08L45.28-36.08Q47.52-36.08 49.76-35.20L49.76-35.20L49.76-35.20Q54.32-33.36 54.32-27.52L54.32-27.52" fill="#292664" stroke="none" stroke-width="none" transform="translate(-123.2800235748291,22.8911942354838)" style="fill: rgb(102, 115, 149);"></path></g><g class="path" style="transform: scale(1); transform-origin: -52.44px 16.0912px; animation: 1s linear -0.44s infinite normal forwards running beat-f35a4aaf-5aa2-43ce-8e3e-0f11edba2440;"><path d="M72.08 22.16L72.08 22.16L72.08 22.16Q72.08 23.12 71.12 23.12L71.12 23.12L71.04 23.12L71.04 23.12Q68.40 23.12 65.08 21.28L65.08 21.28L65.08 21.28Q61.76 19.44 61.76 17.04L61.76 17.04L61.76 17.04Q61.76 14.64 64.80 8.68L64.80 8.68L64.80 8.68Q67.84 2.72 67.84 0.72L67.84 0.72L67.84 0.72Q67.84-1.44 65.76-7.04L65.76-7.04L65.76-7.04Q63.12-14.32 61.56-18.88L61.56-18.88L61.56-18.88Q60-23.44 58.20-26.92L58.20-26.92L58.20-26.92Q56.40-30.40 55.60-31.04L55.60-31.04L54.80-31.60L54.80-31.60Q53.92-32.08 53.92-32.64L53.92-32.64L53.92-32.64Q53.92-33.76 57.40-34.92L57.40-34.92L57.40-34.92Q60.88-36.08 63.52-36.08L63.52-36.08L63.52-36.08Q64.72-36.08 65.52-34.16L65.52-34.16L65.52-34.16Q66.96-30.40 68.64-23.76L68.64-23.76L68.64-23.76Q72.72-10.16 73.76-10.16L73.76-10.16L73.76-10.16Q74.48-10.16 76.68-15.76L76.68-15.76L76.68-15.76Q78.88-21.36 78.88-24.80L78.88-24.80L78.88-24.80Q78.88-30.80 75.36-31.84L75.36-31.84L75.36-31.84Q74.56-32 74.56-32.64L74.56-32.64L74.56-32.64Q74.56-34.08 78.32-35.40L78.32-35.40L78.32-35.40Q82.08-36.72 85.12-36.72L85.12-36.72L85.12-36.72Q87.76-36.72 87.76-33.28L87.76-33.28L87.76-33.28Q87.76-30.64 86.64-27.12L86.64-27.12L86.64-27.12Q85.52-23.60 84.56-21.56L84.56-21.56L84.56-21.56Q83.60-19.52 79.80-12.12L79.80-12.12L79.80-12.12Q76-4.72 73.52 0.88L73.52 0.88L73.52 0.88Q70.80 7.60 70.80 14.56L70.80 14.56L70.80 14.56Q70.80 18.24 71.44 20.08L71.44 20.08L71.44 20.08Q72.08 21.92 72.08 22.16" fill="#292664" stroke="none" stroke-width="none" transform="translate(-123.2800235748291,22.8911942354838)" style="fill: rgb(148, 169, 206);"></path></g><g class="path" style="transform: scale(1); transform-origin: -6.00002px 5.33119px; animation: 1s linear -0.366667s infinite normal forwards running beat-f35a4aaf-5aa2-43ce-8e3e-0f11edba2440;"><path d="M130.16-24L130.16-24L130-13.76L130-13.76Q130-3.12 132.32-0.96L132.32-0.96L132.32-0.96Q132.64-0.64 132.64-0.24L132.64-0.24L132.64-0.24Q132.64 0.96 127.48 0.96L127.48 0.96L127.48 0.96Q122.32 0.96 122-2.08L122-2.08L122-2.08Q121.92-2.80 121.92-5.04L121.92-5.04L122.24-17.84L122.24-17.84Q122.24-18.40 121.60-18.40L121.60-18.40L121.60-18.40Q117.76-18.40 114.40-16.24L114.40-16.24L114.40-16.24Q111.04-14.08 111.04-10.72L111.04-10.72L111.04-10.72Q111.04-8.96 112-7.76L112-7.76L112-7.76Q112.96-6.56 114.36-6.56L114.36-6.56L114.36-6.56Q115.76-6.56 116.68-7.12L116.68-7.12L116.68-7.12Q117.60-7.68 117.76-7.76L117.76-7.76L117.76-7.76Q119.12-7.60 119.12-4.92L119.12-4.92L119.12-4.92Q119.12-2.24 116.64-0.60L116.64-0.60L116.64-0.60Q114.16 1.04 111.44 1.04L111.44 1.04L111.44 1.04Q108.72 1.04 106.76 0.08L106.76 0.08L106.76 0.08Q104.80-0.88 103.92-2.08L103.92-2.08L103.92-2.08Q103.04-3.28 102.48-4.80L102.48-4.80L102.48-4.80Q101.92-6.64 101.92-8L101.92-8L101.92-8Q101.92-13.60 105.44-16.96L105.44-16.96L105.44-16.96Q108.96-20.32 114.48-21.76L114.48-21.76L114.48-21.76Q121.76-23.20 122.08-24.40L122.08-24.40L122.08-24.40Q122.32-25.28 122.32-27.36L122.32-27.36L122.32-27.36Q122.32-31.60 118-31.60L118-31.60L118-31.60Q116.16-31.60 114.72-30.44L114.72-30.44L114.72-30.44Q113.28-29.28 113.28-27.52L113.28-27.52L113.76-25.60L113.76-25.60Q113.60-24.24 110.88-24L110.88-24L110-23.92L110-23.92Q107.60-23.92 106.20-25.12L106.20-25.12L106.20-25.12Q104.80-26.32 104.80-28.32L104.80-28.32L104.80-28.32Q104.80-29.60 105.64-31.16L105.64-31.16L105.64-31.16Q106.48-32.72 107.76-33.68L107.76-33.68L107.76-33.68Q109.04-34.64 111.72-35.40L111.72-35.40L111.72-35.40Q114.40-36.16 116.88-36.16L116.88-36.16L116.88-36.16Q119.36-36.16 120.72-36L120.72-36L120.72-36Q122.08-35.84 124.44-35.24L124.44-35.24L124.44-35.24Q126.80-34.64 128.36-32.96L128.36-32.96L128.36-32.96Q129.92-31.28 130.04-29.40L130.04-29.40L130.04-29.40Q130.16-27.52 130.16-24" fill="#292664" stroke="none" stroke-width="none" transform="translate(-123.2800235748291,22.8911942354838)" style="fill: rgb(181, 204, 241);"></path></g><g class="path" style="transform: scale(1); transform-origin: 25.4px 16.8912px; animation: 1s linear -0.293333s infinite normal forwards running beat-f35a4aaf-5aa2-43ce-8e3e-0f11edba2440;"><path d="M140.32-32.28L140.32-32.28L140.32-32.28Q142.08-34.08 144.96-35.32L144.96-35.32L144.96-35.32Q147.84-36.56 150.48-36.56L150.48-36.56L150.48-36.56Q153.12-36.56 155.84-35.36L155.84-35.36L155.84-35.36Q156.16-35.36 156.32-35.52L156.32-35.52L156.32-35.52Q158.40-37.60 162.40-37.60L162.40-37.60L162.40-37.60Q163.36-37.60 163.36-36.72L163.36-36.72L163.36-36.72Q163.36-36.64 163.20-36L163.20-36L163.20-36Q163.04-35.36 162.80-34.12L162.80-34.12L162.80-34.12Q162.56-32.88 162.40-31.12L162.40-31.12L162.40-31.12Q161.84-26.56 161.80-21.04L161.80-21.04L161.80-21.04Q161.76-15.52 161.76-10L161.76-10L162 6.80L162 6.80Q162 14.88 157.84 20.24L157.84 20.24L157.84 20.24Q156.16 22.40 152.76 24L152.76 24L152.76 24Q149.36 25.60 144.80 25.60L144.80 25.60L144.80 25.60Q143.76 24.96 143.76 24.32L143.76 24.32L143.76 24.32Q143.76 23.68 144.64 23.28L144.64 23.28L144.64 23.28Q149.68 20.96 151.84 12.28L151.84 12.28L151.84 12.28Q154 3.60 154-14.08L154-14.08L153.84-25.28L153.60-30.72L153.60-30.72Q153.60-31.44 151.36-31.76L151.36-31.76L151.36-31.76Q148.48-31.76 146.52-29.88L146.52-29.88L146.52-29.88Q144.56-28 143.84-24.96L143.84-24.96L143.84-24.96Q142.56-20.08 142.56-16.52L142.56-16.52L142.56-16.52Q142.56-12.96 143.72-10.24L143.72-10.24L143.72-10.24Q144.88-7.52 147.76-7.52L147.76-7.52L147.76-7.52Q148.56-7.52 149.24-7.84L149.24-7.84L149.24-7.84Q149.92-8.16 150.16-8.16L150.16-8.16L150.16-8.16Q150.96-8.16 150.96-6.56L150.96-6.56L150.96-6.56Q150.96-4.96 150.72-3.96L150.72-3.96L150.72-3.96Q150.48-2.96 149.76-1.76L149.76-1.76L149.76-1.76Q148.16 0.88 143.52 0.88L143.52 0.88L143.52 0.88Q138.88 0.88 136.88-2.48L136.88-2.48L136.88-2.48Q134.80-5.92 134.48-8.64L134.48-8.64L134.48-8.64Q134.00-12.72 134.00-14L134.00-14L134.00-14Q134.00-15.28 134.04-16.04L134.04-16.04L134.04-16.04Q134.08-16.80 134.44-19.08L134.44-19.08L134.44-19.08Q134.80-21.36 135.40-23.40L135.40-23.40L135.40-23.40Q136.00-25.44 137.28-27.96L137.28-27.96L137.28-27.96Q138.56-30.48 140.32-32.28" fill="#292664" stroke="none" stroke-width="none" transform="translate(-123.2800235748291,22.8911942354838)" style="fill: rgb(242, 190, 209);"></path></g><g class="path" style="transform: scale(1); transform-origin: 57.52px 5.33119px; animation: 1s linear -0.22s infinite normal forwards running beat-f35a4aaf-5aa2-43ce-8e3e-0f11edba2440;"><path d="M193.68-24L193.68-24L193.52-13.76L193.52-13.76Q193.52-3.12 195.84-0.96L195.84-0.96L195.84-0.96Q196.16-0.64 196.16-0.24L196.16-0.24L196.16-0.24Q196.16 0.96 191 0.96L191 0.96L191 0.96Q185.84 0.96 185.52-2.08L185.52-2.08L185.52-2.08Q185.44-2.80 185.44-5.04L185.44-5.04L185.76-17.84L185.76-17.84Q185.76-18.40 185.12-18.40L185.12-18.40L185.12-18.40Q181.28-18.40 177.92-16.24L177.92-16.24L177.92-16.24Q174.56-14.08 174.56-10.72L174.56-10.72L174.56-10.72Q174.56-8.96 175.52-7.76L175.52-7.76L175.52-7.76Q176.48-6.56 177.88-6.56L177.88-6.56L177.88-6.56Q179.28-6.56 180.20-7.12L180.20-7.12L180.20-7.12Q181.12-7.68 181.28-7.76L181.28-7.76L181.28-7.76Q182.64-7.60 182.64-4.92L182.64-4.92L182.64-4.92Q182.64-2.24 180.16-0.60L180.16-0.60L180.16-0.60Q177.68 1.04 174.96 1.04L174.96 1.04L174.96 1.04Q172.24 1.04 170.28 0.08L170.28 0.08L170.28 0.08Q168.32-0.88 167.44-2.08L167.44-2.08L167.44-2.08Q166.56-3.28 166-4.80L166-4.80L166-4.80Q165.44-6.64 165.44-8L165.44-8L165.44-8Q165.44-13.60 168.96-16.96L168.96-16.96L168.96-16.96Q172.48-20.32 178-21.76L178-21.76L178-21.76Q185.28-23.20 185.60-24.40L185.60-24.40L185.60-24.40Q185.84-25.28 185.84-27.36L185.84-27.36L185.84-27.36Q185.84-31.60 181.52-31.60L181.52-31.60L181.52-31.60Q179.68-31.60 178.24-30.44L178.24-30.44L178.24-30.44Q176.80-29.28 176.80-27.52L176.80-27.52L177.28-25.60L177.28-25.60Q177.12-24.24 174.40-24L174.40-24L173.52-23.92L173.52-23.92Q171.12-23.92 169.72-25.12L169.72-25.12L169.72-25.12Q168.32-26.32 168.32-28.32L168.32-28.32L168.32-28.32Q168.32-29.60 169.16-31.16L169.16-31.16L169.16-31.16Q170-32.72 171.28-33.68L171.28-33.68L171.28-33.68Q172.56-34.64 175.24-35.40L175.24-35.40L175.24-35.40Q177.92-36.16 180.40-36.16L180.40-36.16L180.40-36.16Q182.88-36.16 184.24-36L184.24-36L184.24-36Q185.60-35.84 187.96-35.24L187.96-35.24L187.96-35.24Q190.32-34.64 191.88-32.96L191.88-32.96L191.88-32.96Q193.44-31.28 193.56-29.40L193.56-29.40L193.56-29.40Q193.68-27.52 193.68-24" fill="#292664" stroke="none" stroke-width="none" transform="translate(-123.2800235748291,22.8911942354838)" style="fill: rgb(135, 67, 77);"></path></g><g class="path" style="transform: scale(1); transform-origin: 82.08px -23.2288px; animation: 1s linear -0.146667s infinite normal forwards running beat-f35a4aaf-5aa2-43ce-8e3e-0f11edba2440;"><path d="M206.80-42.80L206.80-42.80L204.88-42.88L204.88-42.88Q202.72-42.88 202.08-41.84L202.08-41.84L202.08-41.84Q201.92-41.60 201.68-41.60L201.68-41.60L201.68-41.60Q200.64-41.60 200.64-45.16L200.64-45.16L200.64-45.16Q200.64-48.72 201.72-49.68L201.72-49.68L201.72-49.68Q202.80-50.64 205.48-50.64L205.48-50.64L205.48-50.64Q208.16-50.64 209.12-49.72L209.12-49.72L209.12-49.72Q210.08-48.80 210.08-46.64L210.08-46.64L210.08-46.64Q210.08-44.48 209.36-43.64L209.36-43.64L209.36-43.64Q208.64-42.80 206.80-42.80" fill="#292664" stroke="none" stroke-width="none" transform="translate(-123.2800235748291,22.8911942354838)" style="fill: rgb(85, 43, 47);"></path></g><g class="path" style="transform: scale(1); transform-origin: 81.04px 5.73119px; animation: 1s linear -0.0733333s infinite normal forwards running beat-f35a4aaf-5aa2-43ce-8e3e-0f11edba2440;"><path d="M200.40-2.40L200.40-2.40L201.28-21.04L201.28-21.04Q201.28-27.68 199.76-30.08L199.76-30.08L199.76-30.08Q199.28-30.88 198.64-31.28L198.64-31.28L198.64-31.28Q198.16-31.44 198.16-31.92L198.16-31.92L198.16-31.92Q198.16-33.36 202.24-34.72L202.24-34.72L202.24-34.72Q206.32-36.08 208.20-36.08L208.20-36.08L208.20-36.08Q210.08-36.08 210.16-35.12L210.16-35.12L210.16-35.12Q210.16-33.52 209.72-26.04L209.72-26.04L209.72-26.04Q209.28-18.56 209.28-10.32L209.28-10.32L209.28-10.32Q209.28-2.08 210.24-0.08L210.24-0.08L210.24-0.08Q210.48 0.32 210.48 0.72L210.48 0.72L210.48 0.72Q210.48 1.76 207.44 1.76L207.44 1.76L207.44 1.76Q204.40 1.76 201.20 0.16L201.20 0.16L201.20 0.16Q200.40-0.24 200.40-2.40" fill="#292664" stroke="none" stroke-width="none" transform="translate(-123.2800235748291,22.8911942354838)" style="fill: rgb(41, 38, 100);"></path></g><g class="path" style="transform: scale(1); transform-origin: 106.72px 5.41119px; animation: 1s linear 0s infinite normal forwards running beat-f35a4aaf-5aa2-43ce-8e3e-0f11edba2440;"><path d="M215.36 0.56L215.36 0.56L215.36 0.56Q216.80-8.08 216.80-20.16L216.80-20.16L216.80-20.16Q216.80-32.24 216.08-35.84L216.08-35.84L216.08-35.84Q216.08-36.88 218.48-36.88L218.48-36.88L218.48-36.88Q222.16-36.88 223.36-34.08L223.36-34.08L223.36-34.08Q223.44-33.84 223.76-33.84L223.76-33.84L223.76-33.84Q224.08-33.84 224.24-34L224.24-34L224.24-34Q226.72-36.56 231.92-36.56L231.92-36.56L231.92-36.56Q237.12-36.56 240.16-33.92L240.16-33.92L240.16-33.92Q243.20-31.28 243.20-26.24L243.20-26.24L243.20-26.24Q243.20-23.20 242.68-17.60L242.68-17.60L242.68-17.60Q242.16-12 242.16-9.28L242.16-9.28L242.16-9.28Q242.16-2.80 244.32 0.08L244.32 0.08L244.32 0.08Q244.64 0.48 244.64 0.88L244.64 0.88L244.64 0.88Q244.64 1.92 242.40 1.92L242.40 1.92L242.40 1.92Q232.48 1.92 232.48-6.88L232.48-6.88L232.48-6.88Q232.48-10.24 234-16.24L234-16.24L234-16.24Q235.52-22.24 235.52-25.36L235.52-25.36L235.52-25.36Q235.52-31.76 230.24-31.76L230.24-31.76L230.24-31.76Q227.68-31.76 226.36-30.24L226.36-30.24L226.36-30.24Q225.04-28.72 224.88-26.76L224.88-26.76L224.88-26.76Q224.72-24.80 224.72-19.36L224.72-19.36L224.72-19.36Q224.72-11.04 225.28-4.88L225.28-4.88L225.44-3.12L225.44-3.12Q225.44-0.88 222.52 0.36L222.52 0.36L222.52 0.36Q219.60 1.60 217.48 1.60L217.48 1.60L217.48 1.60Q215.36 1.60 215.36 0.56" fill="#292664" stroke="none" stroke-width="none" transform="translate(-123.2800235748291,22.8911942354838)" style="fill: rgb(102, 115, 149);"></path></g></g>
</g>
</g>
<style id="beat-f35a4aaf-5aa2-43ce-8e3e-0f11edba2440" data-anikit="">@keyframes beat-f35a4aaf-5aa2-43ce-8e3e-0f11edba2440
{
  0% {
    animation-timing-function: cubic-bezier(0.1028,0.2484,0.1372,0.849);
    transform: scale(1);
  }
  34% {
    animation-timing-function: cubic-bezier(0.7116,0.2095,0.8159,0.6876);
    transform: scale(1.2);
  }
  68% {
    animation-timing-function: cubic-bezier(0.1475,0.2888,0.294,0.883);
    transform: scale(1.0268);
  }
  84% {
    animation-timing-function: cubic-bezier(0.8176,0.2193,0.867,0.6889);
    transform: scale(1.0932);
  }
  100% {
    transform: scale(1);
  }
}</style></svg>